<?xml version="1.0" encoding="utf-8"?>
<!-- Generator: Adobe Illustrator 18.0.0, SVG Export Plug-In . SVG Version: 6.00 Build 0)  -->
<!DOCTYPE svg PUBLIC "-//W3C//DTD SVG 1.1//EN" "http://www.w3.org/Graphics/SVG/1.1/DTD/svg11.dtd">
<svg version="1.1" id="Layer_1" xmlns="http://www.w3.org/2000/svg" xmlns:xlink="http://www.w3.org/1999/xlink" x="0px" y="0px"
	 viewBox="0 0 123 117" enable-background="new 0 0 123 117" xml:space="preserve">
<title>call-out/mortgage</title>
<desc>Created with Sketch.</desc>
<g id="Symbols">
	<g id="call-out_x2F_mortgage">
		<g id="Page-1" transform="translate(9.000000, 9.000000)">
			<path id="Fill-1" fill="#00AEEF" d="M63.6,76.5h12.9V57.5H63.6V76.5z M60,80.6c0.4,0.2,0.8,0.4,1.3,0.4h17.4c0,0,0,0,0,0
				c1.3,0,2.3-1,2.3-2.3V55.3c0-1.3-1-2.3-2.3-2.3H61.3C60,53,59,54,59,55.3v0v23.5c0,0.1,0,0.1,0,0.2c0,0.4,0.2,0.8,0.4,1.1
				C59.6,80.2,59.8,80.4,60,80.6z"/>
			<path id="Fill-3" fill="#00AEEF" d="M102.7,6.1L102.7,6.1h-30c-1.3,0-2.3,1-2.3,2.3v0c0,1.3,1,2.3,2.3,2.3h27.7v37.1
				C89.5,36.9,59.4,6.7,54.7,2c-0.1-0.2-0.2-0.4-0.4-0.6c-0.5-0.5-1.1-0.7-1.7-0.7c-0.6,0-1.2,0.2-1.7,0.7c-0.2,0.2-0.3,0.4-0.4,0.6
				C45.6,6.7,15.4,37,4.6,47.9V10.7h16.2c1.3,0,2.3-1,2.3-2.3V4.6h6.5v3.8c0,1.3,1,2.3,2.3,2.3s2.3-1,2.3-2.3V2.3
				c0-1.3-1-2.3-2.3-2.3h0H20.8c-0.1,0-0.1,0-0.2,0c-0.1,0-0.3,0-0.4,0.1c-0.2,0-0.4,0.1-0.6,0.2c-0.2,0.1-0.4,0.2-0.5,0.4
				C19.1,0.8,19,0.9,18.9,1c-0.2,0.4-0.4,0.8-0.4,1.3v3.8H2.4C1.3,6.1,0.3,6.9,0.1,8C0,8.2,0,8.5,0,8.7v45C0,55,1,56,2.3,56
				c0.9,0,1.7-0.6,2.1-1.3L52.5,6.3L101.1,55c0.1,0.1,0.2,0.2,0.4,0.3c0,0,0,0,0,0c0.1,0.1,0.2,0.1,0.4,0.2c0.1,0,0.1,0,0.2,0.1
				c0.1,0,0.2,0.1,0.3,0.1c0.1,0,0.3,0,0.5,0c0,0,0,0,0,0c0,0,0.1,0,0.1,0c0.1,0,0.2,0,0.3,0c0.9-0.2,1.6-0.9,1.8-1.8
				c0-0.1,0-0.2,0-0.3c0-0.1,0-0.1,0-0.2v-45C105,7.1,104,6.1,102.7,6.1"/>
			<path id="Fill-4" fill="#00AEEF" d="M96.7,56.8c-1.3,0-2.3,1-2.3,2.3v36.3H51.9V55.3c0-1.3-1-2.3-2.3-2.3H25.7
				c-0.3,0-0.6,0.1-0.9,0.2l-1.1,0.9c-0.2,0.4-0.3,0.8-0.3,1.2c0,0,0,31.2,0,40.1H10.6V59.2c0-1.3-1-2.3-2.3-2.3S6,57.9,6,59.2v38.5
				C6,99,7,100,8.3,100h17.4c1.2,0,2.3-1,2.3-2.3c0-0.7,0-40.1,0-40.1h19.3v40.1c0,1.3,1,2.3,2.3,2.3h47.1c1.3,0,2.3-1,2.3-2.3V59.1
				C99,57.8,98,56.8,96.7,56.8"/>
		</g>
	</g>
</g>
</svg>
