<?xml version="1.0" encoding="utf-8"?>
<!-- Generator: Adobe Illustrator 18.0.0, SVG Export Plug-In . SVG Version: 6.00 Build 0)  -->
<!DOCTYPE svg PUBLIC "-//W3C//DTD SVG 1.1//EN" "http://www.w3.org/Graphics/SVG/1.1/DTD/svg11.dtd">
<svg version="1.1" id="Layer_1" xmlns="http://www.w3.org/2000/svg" xmlns:xlink="http://www.w3.org/1999/xlink" x="0px" y="0px"
	 viewBox="0 0 123 117" enable-background="new 0 0 123 117" xml:space="preserve">
<title>call-out/treasury</title>
<desc>Created with Sketch.</desc>
<g id="Symbols">
	<g id="call-out_x2F_treasury">
		<g id="Page-1" transform="translate(8.000000, 5.000000)">
			<path id="Fill-1" fill="#00AEEF" d="M75.4,47.7c-8.5,0-15.3-7-15.3-15.7c0-8.7,6.9-15.7,15.3-15.7c8.5,0,15.3,7,15.3,15.7
				C90.8,40.6,83.9,47.7,75.4,47.7 M49.6,35.7c-8.5,0-15.3-7-15.3-15.7c0-8.7,6.9-15.7,15.3-15.7c7,0,12.8,4.7,14.7,11.2
				c-5.1,3.6-8.4,9.6-8.4,16.4c0,0.8,0,1.5,0.1,2.3C54.1,35.2,51.9,35.7,49.6,35.7 M75.4,12c-2.6,0-5.1,0.5-7.4,1.5
				C65.4,5.6,58.1,0,49.6,0C38.8,0,30,9,30,20s8.8,20,19.6,20c2.6,0,5.1-0.5,7.4-1.5C59.6,46.4,66.9,52,75.4,52C86.2,52,95,43,95,32
				C95,20.9,86.2,12,75.4,12"/>
			<g id="Group-5" transform="translate(0.000000, 34.000000)">
				<g id="Clip-4">
				</g>
				<defs>
					<filter id="Adobe_OpacityMaskFilter" filterUnits="userSpaceOnUse" x="0" y="0.3" width="107.6" height="72.6">
						<feColorMatrix  type="matrix" values="1 0 0 0 0  0 1 0 0 0  0 0 1 0 0  0 0 0 1 0"/>
					</filter>
				</defs>
				<mask maskUnits="userSpaceOnUse" x="0" y="0.3" width="107.6" height="72.6" id="mask-2">
					<g filter="url(#Adobe_OpacityMaskFilter)">
						<polygon id="path-1" fill="#FFFFFF" points="0,0.3 107.6,0.3 107.6,73 0,73 						"/>
					</g>
				</mask>
				<path id="Fill-3" mask="url(#mask-2)" fill="#00AEEF" d="M89.4,33.9c-5.2-1.5-9.2-5.5-10.7-10.7h10.7V33.9z M89.4,53.5
					c-7.5,1.7-13.5,7.6-15.2,15.1H19.5c-1.7-7.5-7.6-13.5-15.2-15.1V38.3c7.5-1.7,13.5-7.6,15.2-15.1h54.7
					c1.7,7.5,7.6,13.5,15.2,15.1V53.5z M89.4,68.6H78.7c1.5-5.2,5.5-9.2,10.7-10.7V68.6z M4.3,68.6V57.9c5.2,1.5,9.2,5.5,10.7,10.7
					H4.3z M4.3,23.2H15c-1.5,5.2-5.5,9.2-10.7,10.7V23.2z M105.5,9.3L105.5,9.3L105.5,9.3h-9.6c-1.2,0-2.2,1-2.2,2.2s1,2.2,2.2,2.2
					h7.4v45.5h-9.6V21c0-1.2-1-2.2-2.2-2.2h0H18.3v-5.2h38.8c1.2,0,2.2-1,2.2-2.2s-1-2.2-2.2-2.2h-41h0c-0.1,0-0.1,0-0.1,0
					c-0.5,0-1,0.3-1.4,0.6c-0.1,0.1-0.2,0.2-0.3,0.3c-0.2,0.3-0.4,0.8-0.4,1.2v7.3h-1.2V4.6h20.5c1.2,0,2.2-1,2.2-2.2
					s-1-2.2-2.2-2.2H10.5c-0.1,0-0.1,0-0.2,0c-0.1,0-0.2,0-0.3,0.1c-0.2,0-0.4,0.1-0.5,0.2C9.3,0.7,9.1,0.8,9,0.9
					C8.9,1,8.8,1.1,8.7,1.3C8.5,1.6,8.4,2,8.4,2.5v16.4H2.2c-0.1,0-0.2,0-0.3,0c0,0-0.1,0-0.1,0C0.7,19.1,0,19.9,0,21v49.8
					c0,1.1,0.8,2,1.9,2.1c0.1,0,0.2,0,0.3,0h89.4c0.1,0,0.3,0,0.4,0c1-0.2,1.7-1.1,1.7-2.1v-7.3h11.8c1.2,0,2.2-1,2.2-2.2V11.5
					C107.6,10.3,106.7,9.3,105.5,9.3z"/>
			</g>
			<path id="Fill-6" fill="#00AEEF" d="M50.9,87.9c-0.6,0.4-1.2,0.7-2,0.9v-6.3c0.4,0.1,0.8,0.3,1.1,0.4c0.7,0.3,1.2,0.6,1.6,1
				c0.4,0.4,0.5,1,0.5,1.6C52.1,86.6,51.7,87.3,50.9,87.9z M43.1,75.5c-1-0.3-1.7-0.5-2-0.7c-0.7-0.5-1-1.2-1-2.1
				c0-1,0.4-1.9,1.3-2.5c0.4-0.4,1-0.6,1.7-0.8V75.5z M57,81.1c-0.6-1.1-1.6-1.9-2.9-2.7c-1-0.5-2.2-0.9-3.7-1.3l-1.5-0.3v-7
				c0.8,0.4,1.4,0.8,1.7,1.4c0.4,0.6,0.6,1.3,0.6,2.2h5.9c0-1.3-0.2-2.3-0.4-3.1c-0.3-0.8-0.7-1.6-1.3-2.3c-0.6-0.8-1.3-1.4-2.2-2
				c-0.9-0.6-2-1-3.3-1.3c-0.3-0.1-0.6-0.1-0.9-0.2C48.7,63.1,47.5,62,46,62c-1.4,0-2.6,1-2.9,2.4c-1,0.1-2,0.4-3,0.7
				c-1.7,0.6-3.1,1.6-4.1,2.9c-1,1.3-1.6,3-1.6,5.1c0,1.2,0.2,2.2,0.5,3.1c0.4,0.9,0.9,1.6,1.5,2.2c0.6,0.6,1.6,1.1,2.8,1.6
				c0.8,0.3,2.1,0.7,3.8,1.1v7.6c-0.2-0.1-0.4-0.1-0.6-0.2c-1-0.4-1.7-1-2.1-1.7c-0.3-0.5-0.5-1.3-0.5-2.2H34
				c0.1,1.3,0.2,2.3,0.5,3.1c0.3,0.8,0.7,1.6,1.2,2.4c0.6,0.8,1.2,1.4,2.1,2c0.8,0.5,1.8,1,2.9,1.3c0.8,0.2,1.7,0.4,2.5,0.5
				c0.3,1.2,1.5,2.1,2.8,2.1c1.3,0,2.5-0.9,2.8-2.1c0.4-0.1,0.8-0.1,1.1-0.2c1.4-0.3,2.5-0.7,3.5-1.1c0.9-0.5,1.7-1,2.4-1.7
				c0.6-0.6,1.2-1.5,1.6-2.5c0.4-1,0.6-2.2,0.6-3.4C58,83.4,57.7,82.1,57,81.1z"/>
			<path id="Fill-8" fill="#00AEEF" d="M78.6,38.1c-0.2,0.2-0.4,0.4-0.6,0.5v-3.4c0.1,0.1,0.3,0.1,0.4,0.2c0.2,0.1,0.4,0.3,0.5,0.6
				c0.1,0.2,0.2,0.5,0.2,0.9C79,37.4,78.9,37.8,78.6,38.1z M75,30.8c-0.3-0.1-0.6-0.3-0.7-0.4c-0.2-0.3-0.3-0.6-0.3-1.2
				c0-0.6,0.1-1,0.4-1.4c0.1-0.2,0.3-0.3,0.6-0.4V30.8z M81.6,34.1c-0.3-0.6-0.7-1-1.3-1.4c-0.4-0.3-1-0.5-1.7-0.7l-0.7-0.2v-3.7
				c0.4,0.2,0.6,0.4,0.8,0.7c0.2,0.3,0.3,0.7,0.3,1.2h2.7c0-0.7-0.1-1.2-0.2-1.7c-0.1-0.4-0.3-0.8-0.6-1.2c-0.3-0.4-0.6-0.7-1-1
				c-0.4-0.3-0.9-0.5-1.5-0.7c-0.1,0-0.3-0.1-0.4-0.1c-0.1-0.7-0.6-1.3-1.3-1.3c-0.7,0-1.2,0.5-1.3,1.3c-0.5,0.1-0.9,0.2-1.4,0.4
				c-0.8,0.3-1.4,0.8-1.9,1.5c-0.5,0.7-0.7,1.6-0.7,2.7c0,0.6,0.1,1.2,0.3,1.6c0.2,0.5,0.4,0.9,0.7,1.2c0.3,0.3,0.7,0.6,1.3,0.9
				c0.4,0.2,1,0.4,1.7,0.6v4c-0.1,0-0.2-0.1-0.3-0.1c-0.5-0.2-0.8-0.5-1-0.9c-0.1-0.3-0.2-0.7-0.2-1.2H71c0,0.7,0.1,1.2,0.2,1.7
				c0.1,0.4,0.3,0.9,0.6,1.3c0.3,0.4,0.6,0.7,0.9,1s0.8,0.5,1.3,0.7c0.4,0.1,0.8,0.2,1.2,0.3c0.2,0.6,0.7,1.1,1.3,1.1
				c0.6,0,1.1-0.5,1.3-1.1c0.2,0,0.3-0.1,0.5-0.1c0.6-0.1,1.2-0.3,1.6-0.6c0.4-0.3,0.8-0.6,1.1-0.9c0.3-0.3,0.5-0.8,0.7-1.3
				c0.2-0.5,0.3-1.1,0.3-1.8C82,35.3,81.9,34.7,81.6,34.1z"/>
			<path id="Fill-10" fill="#00AEEF" d="M52.8,23c-0.3,0.2-0.6,0.4-0.9,0.5v-3.2c0.2,0.1,0.4,0.1,0.5,0.2c0.3,0.1,0.6,0.3,0.7,0.5
				c0.2,0.2,0.2,0.5,0.2,0.8C53.3,22.3,53.1,22.7,52.8,23z M49.2,16.7c-0.5-0.1-0.8-0.3-0.9-0.4c-0.3-0.2-0.5-0.6-0.5-1
				c0-0.5,0.2-0.9,0.6-1.3c0.2-0.2,0.5-0.3,0.8-0.4V16.7z M55.6,19.5c-0.3-0.5-0.7-1-1.3-1.3c-0.4-0.3-1-0.5-1.7-0.6l-0.7-0.2v-3.5
				c0.4,0.2,0.6,0.4,0.8,0.7c0.2,0.3,0.3,0.7,0.3,1.1h2.7c0-0.6-0.1-1.2-0.2-1.6c-0.1-0.4-0.3-0.8-0.6-1.2c-0.3-0.4-0.6-0.7-1-1
				c-0.4-0.3-0.9-0.5-1.5-0.7c-0.1,0-0.3-0.1-0.4-0.1c-0.1-0.7-0.6-1.2-1.3-1.2c-0.7,0-1.2,0.5-1.3,1.2c-0.5,0.1-0.9,0.2-1.4,0.4
				c-0.8,0.3-1.4,0.8-1.9,1.5c-0.5,0.7-0.7,1.5-0.7,2.6c0,0.6,0.1,1.1,0.3,1.5c0.2,0.4,0.4,0.8,0.7,1.1c0.3,0.3,0.7,0.6,1.3,0.8
				c0.4,0.2,1,0.3,1.7,0.5v3.8c-0.1,0-0.2-0.1-0.3-0.1c-0.5-0.2-0.8-0.5-1-0.9c-0.1-0.3-0.2-0.6-0.2-1.1H45c0,0.6,0.1,1.2,0.2,1.6
				c0.1,0.4,0.3,0.8,0.6,1.2c0.3,0.4,0.6,0.7,0.9,1c0.4,0.3,0.8,0.5,1.3,0.7c0.4,0.1,0.8,0.2,1.2,0.3c0.2,0.6,0.7,1,1.3,1
				c0.6,0,1.1-0.5,1.3-1.1c0.2,0,0.3-0.1,0.5-0.1c0.6-0.1,1.2-0.3,1.6-0.6c0.4-0.2,0.8-0.5,1.1-0.8c0.3-0.3,0.5-0.7,0.7-1.2
				c0.2-0.5,0.3-1.1,0.3-1.7C56,20.7,55.9,20.1,55.6,19.5z"/>
		</g>
	</g>
</g>
</svg>
