<?xml version="1.0" encoding="utf-8"?>
<!-- Generator: Adobe Illustrator 18.0.0, SVG Export Plug-In . SVG Version: 6.00 Build 0)  -->
<!DOCTYPE svg PUBLIC "-//W3C//DTD SVG 1.1//EN" "http://www.w3.org/Graphics/SVG/1.1/DTD/svg11.dtd">
<svg version="1.1" id="Layer_1" xmlns="http://www.w3.org/2000/svg" xmlns:xlink="http://www.w3.org/1999/xlink" x="0px" y="0px"
	 viewBox="0 0 123 117" enable-background="new 0 0 123 117" xml:space="preserve">
<title>call-out/trust</title>
<desc>Created with Sketch.</desc>
<g id="Symbols">
	<g id="call-out_x2F_trust">
		<g id="Page-1" transform="translate(5.000000, 0.000000)">
			<path id="Fill-1" fill="#00AEEF" d="M69.5,20.5c-0.7-0.7-1.8-0.7-2.5,0L56.4,31.5L53,27.9c-0.7-0.7-1.8-0.7-2.5,0
				c-0.7,0.7-0.7,1.9,0,2.6l4.7,4.8c0.7,0.7,1.8,0.7,2.5,0c0,0,0,0,0,0c0.7-0.7,11.8-12.2,11.8-12.2C70.2,22.4,70.2,21.2,69.5,20.5"
				/>
			<g id="Group-5">
				<g id="Clip-4">
				</g>
				<defs>
					<filter id="Adobe_OpacityMaskFilter" filterUnits="userSpaceOnUse" x="0" y="0.6" width="112.3" height="116.4">
						<feColorMatrix  type="matrix" values="1 0 0 0 0  0 1 0 0 0  0 0 1 0 0  0 0 0 1 0"/>
					</filter>
				</defs>
				<mask maskUnits="userSpaceOnUse" x="0" y="0.6" width="112.3" height="116.4" id="mask-2">
					<g filter="url(#Adobe_OpacityMaskFilter)">
						<polygon id="path-1" fill="#FFFFFF" points="0,0.6 112.3,0.6 112.3,117 0,117 						"/>
					</g>
				</mask>
				<path id="Fill-3" mask="url(#mask-2)" fill="#00AEEF" d="M99.6,71.1l-0.3,0.3c-0.5,0.6-1.2,1.5-2.1,2.9c-2,2.8-7.2,10.3-10,10.3
					c-0.2,0-0.4,0-0.7-0.3c-4.3-3.8-12.2-11.9-17.9-17.7c-2-2.1-3.8-3.8-4.9-5c-1.1-1.1-2.8-1.6-5-1.6c-2.6,0-5.9,0.7-9,1.4
					c-2.1,0.4-4,0.9-5.7,1.1c-3,0.4-6-1.4-7.7-3.1c-0.8-0.9-1.1-1.5-1.2-1.8c2.6-2.2,20.3-7.9,23.1-8c0.6,0.1,2.8,1.1,4.7,2
					c6.2,2.8,10.7,4.6,12.5,4.3c3.3-0.5,16.1-6.7,19.6-8.5c5.2,2.1,12.2,9,12.9,17.6C106.1,66.4,101.9,69.4,99.6,71.1z M87,93.4
					c-0.9,2-2.9,3.4-5.2,3.8L66.7,82.1l-3,3l15.2,15.1c-0.2,0.8-0.9,2.1-2.3,3.1c-1.1,0.8-2.9,1.5-5.1,0.6L58.3,90.7l-3,3l12.3,12.2
					c-0.8,1-2,1.7-3.3,2.2c-1.1,0.4-2.8,0.6-4.6-0.3l-8.9-8.9l-3,3l8,8c-1.3,1.7-2.8,2.8-4.2,3c-1.3,0.2-2.7-0.4-4-1.8l-3.3-3.3
					c0.5-1.4,0.5-2.9,0.1-4.4c-0.7-2.4-2.5-4.4-4.7-5.5c-0.8-2.9-3.4-5.6-6.5-6.9c-1.2-2.9-3.7-5.8-7.7-6.5c-1.5-3-5.2-5.5-8.3-5.5
					c-0.4,0-0.7,0-1,0.1c-0.5-1-1.3-2.7-2.1-5.6l-0.1-0.5l-9.1-9.8C7.6,54.8,18,46,23.3,44.8l11.2,8.4c-1.5,0.8-2.6,1.6-3,2.3
					c-0.5,0.8-1.1,2.4,0.2,4.8c1.9,3.5,7.4,7,12.8,6.4c1.9-0.2,4-0.7,6-1.1c2.9-0.6,6-1.3,8.1-1.3c1.6,0,2,0.3,2.1,0.4
					c1.1,1.1,2.8,2.9,4.9,4.9c5.8,5.9,13.7,14,18.2,17.9c0.9,0.8,1.9,1.2,3,1.3C87.6,90.3,87.7,91.9,87,93.4z M40,106.8l-2.3,2.3
					c-0.7,0.7-1.4,1.1-2.2,1.1c-1.7,0-3.8-1.9-4.6-4.3l-0.4-1.1l-1.2-0.2c-3.5-0.7-4.7-2.3-5.6-4.9l-0.4-1.1l-1.2-0.2
					c-4.7-0.9-5.3-4.6-5.4-5.1l-0.2-1.5L15,91.5c-1.2-0.2-2.2-1.1-2.5-2.2c-0.1-0.5-0.4-1.7,0.6-2.7l3.3-3.2
					c0.1-0.1,0.3-0.3,0.8-0.3c1.8,0,4.4,2.3,4.7,3.8l0.4,1.6l1.6,0c4,0.1,5.3,3.9,5.6,4.7l0.3,1.1l1.1,0.3c2.3,0.6,4.6,2.9,4.8,4.9
					l0.1,1.4l1.3,0.4c1.4,0.4,2.7,1.7,3.1,3.2C40.5,105.1,40.6,106.1,40,106.8z M29.1,18C46.5,18,59.6,5,59.6,5S72.7,18,90.2,18
					c0,11.4-1.5,20.9-3.7,28.9c-4.7,2.2-10.1,4.6-11.5,4.8c-1.4,0-7.4-2.7-10.3-4c-2.9-1.3-4.5-2-5.4-2.2c-0.3-0.1-0.5-0.1-0.8-0.1
					c-2.2,0-12.3,2.8-19.6,5.7l-6.1-4.6C30.5,38.7,29.1,29.3,29.1,18z M112.3,65.9c-0.3-11.6-9.9-20.7-16.7-22.8l-0.8-0.3L94,43.3
					c-0.5,0.2-1.3,0.7-2.3,1.2c1.8-7.5,2.9-16.3,2.9-26.4c0-2.4-2-4.4-4.4-4.4C74.7,13.7,62.8,2,62.7,1.9c-0.8-0.8-1.9-1.3-3.1-1.3
					c-1.2,0-2.3,0.5-3.1,1.3c-0.3,0.3-12.2,11.8-27.5,11.8c-2.4,0-4.4,1.9-4.4,4.4c0,9.2,0.9,17.3,2.5,24.4l-2.7-2l-0.8,0.1
					C16.3,41.2,3.2,52.7,0.3,63.1L0,64.2L10.1,75c0.8,2.7,1.6,4.7,2.5,6.2l-2.4,2.4c-1.8,1.8-2.4,4.4-1.6,6.9
					c0.7,2.2,2.3,3.9,4.4,4.7c0.8,2.8,3.1,5.8,7.3,7c1.1,2.5,3,5.1,7.3,6.2c1.5,3.1,4.6,5.9,8.1,5.9c1.9,0,3.7-0.8,5.2-2.3l1-1
					l2.9,2.9c2.5,2.5,4.8,3.1,6.6,3.1c0.3,0,0.7,0,1-0.1c2.6-0.3,5.1-2.1,7.1-4.8c2,0.6,4.2,0.6,6.3-0.1c2.2-0.7,4.2-2.1,5.6-3.8
					c2.7,0.7,5.5,0.2,7.9-1.5c2-1.4,3.4-3.5,3.9-5.4c3.4-0.7,6.4-3,7.8-6.1c1.1-2.5,1.2-5.1,0.1-7.6c3.3-2,6.6-6.4,9.7-10.9
					c0.7-1,1.3-1.9,1.7-2.3c1.3-0.9,8.1-5.8,9.2-6.7l0.8-0.6L112.3,65.9z"/>
			</g>
		</g>
	</g>
</g>
</svg>
